<svg width="24" height="24" viewBox="0 0 24 24" fill="none" xmlns="http://www.w3.org/2000/svg">
<path d="M9.675 13.2L10.55 10.35L8.25 8.5H11.1L12 5.7L12.9 8.5H15.75L13.425 10.35L14.3 13.2L12 11.425L9.675 13.2ZM6 22.5V14.775C5.36667 14.075 4.875 13.275 4.525 12.375C4.175 11.475 4 10.5167 4 9.5C4 7.26667 4.775 5.375 6.325 3.825C7.875 2.275 9.76667 1.5 12 1.5C14.2333 1.5 16.125 2.275 17.675 3.825C19.225 5.375 20 7.26667 20 9.5C20 10.5167 19.825 11.475 19.475 12.375C19.125 13.275 18.6333 14.075 18 14.775V22.5L12 20.5L6 22.5ZM12 15.5C13.6667 15.5 15.0833 14.9167 16.25 13.75C17.4167 12.5833 18 11.1667 18 9.5C18 7.83333 17.4167 6.41667 16.25 5.25C15.0833 4.08333 13.6667 3.5 12 3.5C10.3333 3.5 8.91667 4.08333 7.75 5.25C6.58333 6.41667 6 7.83333 6 9.5C6 11.1667 6.58333 12.5833 7.75 13.75C8.91667 14.9167 10.3333 15.5 12 15.5ZM8 19.525L12 18.5L16 19.525V16.425C15.4167 16.7583 14.7875 17.0208 14.1125 17.2125C13.4375 17.4042 12.7333 17.5 12 17.5C11.2667 17.5 10.5625 17.4042 9.8875 17.2125C9.2125 17.0208 8.58333 16.7583 8 16.425V19.525Z" fill="#545454"/>
</svg>
